<svg width="238" height="146" viewBox="0 0 238 146" fill="none" xmlns="http://www.w3.org/2000/svg">
<path d="M237.129 105.472C237.129 127.444 219.284 145.257 197.263 145.257H53.0066C23.7339 145.257 0 121.575 0 92.3494C0 63.1326 23.7339 39.4418 53.0066 39.4418C55.6319 39.4418 58.2124 39.643 60.7425 40.009C72.713 16.2818 97.3313 0 125.77 0C160.181 0 189.009 23.8472 196.583 55.8857C197.338 59.0845 197.884 62.3616 198.198 65.7001V65.7085C219.776 66.2001 237.129 83.8118 237.129 105.472V105.472Z" fill="#BAC7CB" fill-opacity="0.4"/>
<g filter="url(#filter0_b_403_72)">
<path d="M237.129 105.472C237.129 127.444 219.284 145.257 197.263 145.257H53.0066C23.7339 145.257 0 121.575 0 92.3494C0 63.1326 23.7339 39.4418 53.0066 39.4418C55.6319 39.4418 58.2124 39.643 60.7425 40.009C72.713 16.2818 97.3313 0 125.77 0C160.181 0 189.009 23.8472 196.583 55.8857C197.338 59.0845 197.884 62.3616 198.198 65.7001V65.7085C219.776 66.2001 237.129 83.8118 237.129 105.472V105.472Z" fill="url(#paint0_linear_403_72)"/>
</g>
<g filter="url(#filter1_b_403_72)">
<path fill-rule="evenodd" clip-rule="evenodd" d="M61.4487 41.3655L60.5648 41.2377C58.0893 40.8796 55.5683 40.6833 53.0066 40.6833C24.4174 40.6833 1.24151 63.8205 1.24151 92.3494C1.24151 120.887 24.4173 144.016 53.0066 144.016H197.263C218.6 144.016 235.887 126.756 235.887 105.472C235.887 84.4906 219.078 67.4261 198.169 66.9496L196.956 66.922V65.7585C196.647 62.4983 196.113 59.2972 195.374 56.1713C187.931 24.6817 159.594 1.24151 125.77 1.24151C97.8172 1.24151 73.6182 17.2439 61.851 40.5682L61.4487 41.3655ZM198.198 65.7001V65.7085C219.776 66.2001 237.129 83.8118 237.129 105.472C237.129 127.444 219.284 145.257 197.263 145.257H53.0066C23.7339 145.257 0 121.575 0 92.3494C0 63.1326 23.7339 39.4418 53.0066 39.4418C55.6319 39.4418 58.2124 39.643 60.7425 40.009C72.713 16.2818 97.3313 0 125.77 0C160.181 0 189.009 23.8473 196.583 55.8857C197.338 59.0845 197.884 62.3616 198.198 65.7001Z" fill="url(#paint1_linear_403_72)"/>
</g>
<defs>
<filter id="filter0_b_403_72" x="-31.0378" y="-31.0378" width="299.205" height="207.333" filterUnits="userSpaceOnUse" color-interpolation-filters="sRGB">
<feFlood flood-opacity="0" result="BackgroundImageFix"/>
<feGaussianBlur in="BackgroundImageFix" stdDeviation="15.5189"/>
<feComposite in2="SourceAlpha" operator="in" result="effect1_backgroundBlur_403_72"/>
<feBlend mode="normal" in="SourceGraphic" in2="effect1_backgroundBlur_403_72" result="shape"/>
</filter>
<filter id="filter1_b_403_72" x="-31.0378" y="-31.0378" width="299.205" height="207.333" filterUnits="userSpaceOnUse" color-interpolation-filters="sRGB">
<feFlood flood-opacity="0" result="BackgroundImageFix"/>
<feGaussianBlur in="BackgroundImageFix" stdDeviation="15.5189"/>
<feComposite in2="SourceAlpha" operator="in" result="effect1_backgroundBlur_403_72"/>
<feBlend mode="normal" in="SourceGraphic" in2="effect1_backgroundBlur_403_72" result="shape"/>
</filter>
<linearGradient id="paint0_linear_403_72" x1="37.5558" y1="25.451" x2="205.781" y2="145.257" gradientUnits="userSpaceOnUse">
<stop offset="0.416176" stop-color="white" stop-opacity="0.7"/>
<stop offset="1" stop-color="white" stop-opacity="0"/>
</linearGradient>
<linearGradient id="paint1_linear_403_72" x1="-18.1585" y1="38.2772" x2="66.744" y2="99.3442" gradientUnits="userSpaceOnUse">
<stop stop-color="white"/>
<stop offset="1" stop-color="white" stop-opacity="0"/>
</linearGradient>
</defs>
</svg>
