<svg width="394" height="313" viewBox="0 0 394 313" fill="none" xmlns="http://www.w3.org/2000/svg">
<g filter="url(#filter0_f_404_88)">
<rect x="100" y="136" width="82" height="55.3" rx="27.65" fill="white"/>
</g>
<g filter="url(#filter1_f_404_88)">
<rect x="144" y="157.7" width="82" height="55.3" rx="27.65" fill="white"/>
</g>
<g filter="url(#filter2_f_404_88)">
<rect x="212" y="140.2" width="82" height="55.3" rx="27.65" fill="white"/>
</g>
<path d="M315.478 105.472C315.478 127.444 297.633 145.257 275.612 145.257H131.356C102.083 145.257 78.3492 121.575 78.3492 92.3494C78.3492 63.1326 102.083 39.4418 131.356 39.4418C133.981 39.4418 136.562 39.643 139.092 40.009C151.062 16.2818 175.681 0 204.119 0C238.531 0 267.358 23.8472 274.932 55.8857C275.688 59.0845 276.233 62.3616 276.547 65.7001V65.7085C298.126 66.2001 315.478 83.8118 315.478 105.472V105.472Z" fill="#BAC7CB" fill-opacity="0.4"/>
<g filter="url(#filter3_b_404_88)">
<path d="M315.478 105.472C315.478 127.444 297.633 145.257 275.612 145.257H131.356C102.083 145.257 78.3492 121.575 78.3492 92.3494C78.3492 63.1326 102.083 39.4418 131.356 39.4418C133.981 39.4418 136.562 39.643 139.092 40.009C151.062 16.2818 175.681 0 204.119 0C238.531 0 267.358 23.8472 274.932 55.8857C275.688 59.0845 276.233 62.3616 276.547 65.7001V65.7085C298.126 66.2001 315.478 83.8118 315.478 105.472V105.472Z" fill="url(#paint0_linear_404_88)"/>
</g>
<g filter="url(#filter4_b_404_88)">
<path fill-rule="evenodd" clip-rule="evenodd" d="M139.798 41.3655L138.914 41.2377C136.439 40.8796 133.918 40.6833 131.356 40.6833C102.767 40.6833 79.5908 63.8205 79.5908 92.3494C79.5908 120.887 102.767 144.016 131.356 144.016H275.612C296.95 144.016 314.237 126.756 314.237 105.472C314.237 84.4906 297.427 67.4261 276.519 66.9496L275.305 66.922V65.7585C274.996 62.4983 274.462 59.2972 273.724 56.1713C266.28 24.6817 237.943 1.24151 204.119 1.24151C176.166 1.24151 151.967 17.2439 140.2 40.5682L139.798 41.3655ZM276.547 65.7001V65.7085C298.126 66.2001 315.478 83.8118 315.478 105.472C315.478 127.444 297.633 145.257 275.612 145.257H131.356C102.083 145.257 78.3492 121.575 78.3492 92.3494C78.3492 63.1326 102.083 39.4418 131.356 39.4418C133.981 39.4418 136.562 39.643 139.092 40.009C151.062 16.2818 175.681 0 204.119 0C238.531 0 267.358 23.8473 274.932 55.8857C275.688 59.0845 276.233 62.3616 276.547 65.7001Z" fill="url(#paint1_linear_404_88)"/>
</g>
<g filter="url(#filter5_f_404_88)">
<path d="M268 116.841C268 149.702 225.467 176.341 173 176.341C120.533 176.341 78 149.702 78 116.841C78 83.9805 120.533 57.3414 173 57.3414C225.467 57.3414 268 83.9805 268 116.841Z" fill="#BAC7CB" fill-opacity="0.2"/>
</g>
<path d="M252.649 141.464C252.649 157.615 239.532 170.708 223.346 170.708H117.311C95.7947 170.708 78.3492 153.301 78.3492 131.819C78.3492 110.343 95.7947 92.9294 117.311 92.9294C119.241 92.9294 121.138 93.0773 122.998 93.3463C131.796 75.9058 149.892 63.938 170.796 63.938C196.089 63.938 217.279 81.4667 222.846 105.016C223.401 107.368 223.803 109.776 224.033 112.23V112.237C239.894 112.598 252.649 125.543 252.649 141.464V141.464Z" fill="#BAC7CB"/>
<g filter="url(#filter6_b_404_88)">
<path d="M252.649 141.464C252.649 157.615 239.532 170.708 223.346 170.708H117.311C95.7947 170.708 78.3492 153.301 78.3492 131.819C78.3492 110.343 95.7947 92.9294 117.311 92.9294C119.241 92.9294 121.138 93.0773 122.998 93.3463C131.796 75.9058 149.892 63.938 170.796 63.938C196.089 63.938 217.279 81.4667 222.846 105.016C223.401 107.368 223.803 109.776 224.033 112.23V112.237C239.894 112.598 252.649 125.543 252.649 141.464V141.464Z" fill="url(#paint2_linear_404_88)"/>
</g>
<g filter="url(#filter7_b_404_88)">
<path fill-rule="evenodd" clip-rule="evenodd" d="M123.704 94.7029L122.82 94.575C121.015 94.3139 119.178 94.1709 117.311 94.1709C96.4782 94.1709 79.5908 111.031 79.5908 131.819C79.5908 152.613 96.478 169.467 117.311 169.467H223.346C238.849 169.467 251.408 156.927 251.408 141.464C251.408 126.222 239.196 113.824 224.005 113.478L222.791 113.45V112.289C222.566 109.913 222.176 107.58 221.638 105.302C216.201 82.3011 195.502 65.1795 170.796 65.1795C150.378 65.1795 132.702 76.8679 124.106 93.9055L123.704 94.7029ZM224.033 112.23V112.237C239.894 112.598 252.649 125.543 252.649 141.464C252.649 157.615 239.532 170.708 223.346 170.708H117.311C95.7947 170.708 78.3492 153.301 78.3492 131.819C78.3492 110.343 95.7947 92.9294 117.311 92.9294C119.241 92.9294 121.138 93.0773 122.998 93.3463C131.796 75.9058 149.892 63.938 170.796 63.938C196.089 63.938 217.279 81.4667 222.846 105.016C223.401 107.368 223.803 109.776 224.033 112.23Z" fill="url(#paint3_linear_404_88)"/>
</g>
<path d="M197.14 186.848C189.214 191.436 183.878 200.001 183.878 209.817C183.878 210.168 183.883 210.516 183.897 210.862C184.546 227.537 209.734 227.537 210.383 210.862C210.397 210.516 210.402 210.168 210.402 209.817C210.405 200.001 205.066 191.436 197.14 186.848V186.848Z" fill="#00A3FF"/>
<path d="M146.24 150.223C138.314 154.812 132.976 163.376 132.976 173.192C132.976 173.543 132.983 173.892 132.997 174.24C133.644 190.912 158.834 190.912 159.483 174.24C159.495 173.892 159.502 173.543 159.502 173.192C159.502 163.376 154.166 154.812 146.24 150.223V150.223Z" fill="#00A3FF"/>
<path d="M255.062 162.017C247.137 166.606 241.8 175.171 241.8 184.987C241.8 185.338 241.808 185.686 241.82 186.035C242.468 202.707 267.657 202.707 268.305 186.035C268.32 185.686 268.325 185.338 268.325 184.987C268.327 175.171 262.991 166.606 255.062 162.017V162.017Z" fill="#00A3FF"/>
<defs>
<filter id="filter0_f_404_88" x="0" y="36" width="282" height="255.3" filterUnits="userSpaceOnUse" color-interpolation-filters="sRGB">
<feFlood flood-opacity="0" result="BackgroundImageFix"/>
<feBlend mode="normal" in="SourceGraphic" in2="BackgroundImageFix" result="shape"/>
<feGaussianBlur stdDeviation="50" result="effect1_foregroundBlur_404_88"/>
</filter>
<filter id="filter1_f_404_88" x="44" y="57.7001" width="282" height="255.3" filterUnits="userSpaceOnUse" color-interpolation-filters="sRGB">
<feFlood flood-opacity="0" result="BackgroundImageFix"/>
<feBlend mode="normal" in="SourceGraphic" in2="BackgroundImageFix" result="shape"/>
<feGaussianBlur stdDeviation="50" result="effect1_foregroundBlur_404_88"/>
</filter>
<filter id="filter2_f_404_88" x="112" y="40.2" width="282" height="255.3" filterUnits="userSpaceOnUse" color-interpolation-filters="sRGB">
<feFlood flood-opacity="0" result="BackgroundImageFix"/>
<feBlend mode="normal" in="SourceGraphic" in2="BackgroundImageFix" result="shape"/>
<feGaussianBlur stdDeviation="50" result="effect1_foregroundBlur_404_88"/>
</filter>
<filter id="filter3_b_404_88" x="47.3114" y="-31.0378" width="299.205" height="207.333" filterUnits="userSpaceOnUse" color-interpolation-filters="sRGB">
<feFlood flood-opacity="0" result="BackgroundImageFix"/>
<feGaussianBlur in="BackgroundImageFix" stdDeviation="15.5189"/>
<feComposite in2="SourceAlpha" operator="in" result="effect1_backgroundBlur_404_88"/>
<feBlend mode="normal" in="SourceGraphic" in2="effect1_backgroundBlur_404_88" result="shape"/>
</filter>
<filter id="filter4_b_404_88" x="47.3114" y="-31.0378" width="299.205" height="207.333" filterUnits="userSpaceOnUse" color-interpolation-filters="sRGB">
<feFlood flood-opacity="0" result="BackgroundImageFix"/>
<feGaussianBlur in="BackgroundImageFix" stdDeviation="15.5189"/>
<feComposite in2="SourceAlpha" operator="in" result="effect1_backgroundBlur_404_88"/>
<feBlend mode="normal" in="SourceGraphic" in2="effect1_backgroundBlur_404_88" result="shape"/>
</filter>
<filter id="filter5_f_404_88" x="63.1018" y="42.4433" width="219.796" height="148.796" filterUnits="userSpaceOnUse" color-interpolation-filters="sRGB">
<feFlood flood-opacity="0" result="BackgroundImageFix"/>
<feBlend mode="normal" in="SourceGraphic" in2="BackgroundImageFix" result="shape"/>
<feGaussianBlur stdDeviation="7.44908" result="effect1_foregroundBlur_404_88"/>
</filter>
<filter id="filter6_b_404_88" x="47.3114" y="32.9002" width="236.376" height="168.846" filterUnits="userSpaceOnUse" color-interpolation-filters="sRGB">
<feFlood flood-opacity="0" result="BackgroundImageFix"/>
<feGaussianBlur in="BackgroundImageFix" stdDeviation="15.5189"/>
<feComposite in2="SourceAlpha" operator="in" result="effect1_backgroundBlur_404_88"/>
<feBlend mode="normal" in="SourceGraphic" in2="effect1_backgroundBlur_404_88" result="shape"/>
</filter>
<filter id="filter7_b_404_88" x="47.3114" y="32.9002" width="236.376" height="168.846" filterUnits="userSpaceOnUse" color-interpolation-filters="sRGB">
<feFlood flood-opacity="0" result="BackgroundImageFix"/>
<feGaussianBlur in="BackgroundImageFix" stdDeviation="15.5189"/>
<feComposite in2="SourceAlpha" operator="in" result="effect1_backgroundBlur_404_88"/>
<feBlend mode="normal" in="SourceGraphic" in2="effect1_backgroundBlur_404_88" result="shape"/>
</filter>
<linearGradient id="paint0_linear_404_88" x1="115.905" y1="25.451" x2="284.13" y2="145.257" gradientUnits="userSpaceOnUse">
<stop offset="0.416176" stop-color="white" stop-opacity="0.7"/>
<stop offset="1" stop-color="white" stop-opacity="0"/>
</linearGradient>
<linearGradient id="paint1_linear_404_88" x1="60.1907" y1="38.2772" x2="145.093" y2="99.3442" gradientUnits="userSpaceOnUse">
<stop stop-color="white"/>
<stop offset="1" stop-color="white" stop-opacity="0"/>
</linearGradient>
<linearGradient id="paint2_linear_404_88" x1="105.954" y1="82.6456" x2="229.607" y2="170.708" gradientUnits="userSpaceOnUse">
<stop offset="0.416176" stop-color="white" stop-opacity="0.7"/>
<stop offset="1" stop-color="white" stop-opacity="0"/>
</linearGradient>
<linearGradient id="paint3_linear_404_88" x1="65.002" y1="92.0734" x2="127.409" y2="136.96" gradientUnits="userSpaceOnUse">
<stop stop-color="white"/>
<stop offset="1" stop-color="white" stop-opacity="0"/>
</linearGradient>
</defs>
</svg>
