<svg width="394" height="343" viewBox="0 0 394 343" fill="none" xmlns="http://www.w3.org/2000/svg">
<g filter="url(#filter0_f_404_86)">
<rect x="100" y="166" width="82" height="55.3" rx="27.65" fill="#E9E9E9"/>
</g>
<g filter="url(#filter1_f_404_86)">
<rect x="144" y="187.7" width="82" height="55.3" rx="27.65" fill="#E9E9E9"/>
</g>
<g filter="url(#filter2_f_404_86)">
<rect x="212" y="170.2" width="82" height="55.3" rx="27.65" fill="#E9E9E9"/>
</g>
<path d="M299.129 105.472C299.129 127.444 281.284 145.257 259.263 145.257H115.007C85.7339 145.257 62 121.575 62 92.3494C62 63.1326 85.7339 39.4418 115.007 39.4418C117.632 39.4418 120.212 39.643 122.743 40.009C134.713 16.2818 159.331 0 187.77 0C222.181 0 251.009 23.8472 258.583 55.8857C259.338 59.0845 259.884 62.3616 260.198 65.7001V65.7085C281.776 66.2001 299.129 83.8118 299.129 105.472V105.472Z" fill="#BAC7CB" fill-opacity="0.4"/>
<g filter="url(#filter3_b_404_86)">
<path d="M299.129 105.472C299.129 127.444 281.284 145.257 259.263 145.257H115.007C85.7339 145.257 62 121.575 62 92.3494C62 63.1326 85.7339 39.4418 115.007 39.4418C117.632 39.4418 120.212 39.643 122.743 40.009C134.713 16.2818 159.331 0 187.77 0C222.181 0 251.009 23.8472 258.583 55.8857C259.338 59.0845 259.884 62.3616 260.198 65.7001V65.7085C281.776 66.2001 299.129 83.8118 299.129 105.472V105.472Z" fill="url(#paint0_linear_404_86)"/>
</g>
<g filter="url(#filter4_b_404_86)">
<path fill-rule="evenodd" clip-rule="evenodd" d="M123.449 41.3655L122.565 41.2377C120.089 40.8796 117.568 40.6833 115.007 40.6833C86.4174 40.6833 63.2415 63.8205 63.2415 92.3494C63.2415 120.887 86.4173 144.016 115.007 144.016H259.263C280.6 144.016 297.887 126.756 297.887 105.472C297.887 84.4906 281.078 67.4261 260.169 66.9496L258.956 66.922V65.7585C258.647 62.4983 258.113 59.2972 257.374 56.1713C249.931 24.6817 221.594 1.24151 187.77 1.24151C159.817 1.24151 135.618 17.2439 123.851 40.5682L123.449 41.3655ZM260.198 65.7001V65.7085C281.776 66.2001 299.129 83.8118 299.129 105.472C299.129 127.444 281.284 145.257 259.263 145.257H115.007C85.7339 145.257 62 121.575 62 92.3494C62 63.1326 85.7339 39.4418 115.007 39.4418C117.632 39.4418 120.212 39.643 122.743 40.009C134.713 16.2818 159.331 0 187.77 0C222.181 0 251.009 23.8473 258.583 55.8857C259.338 59.0845 259.884 62.3616 260.198 65.7001Z" fill="url(#paint1_linear_404_86)"/>
</g>
<path d="M131.816 187.469C131.137 186.304 129.636 185.906 128.462 186.577L123.427 189.46V183.695C123.427 182.351 122.327 181.261 120.972 181.261C119.616 181.261 118.516 182.351 118.516 183.695V189.46L113.481 186.577C112.307 185.904 110.806 186.304 110.127 187.469C109.45 188.633 109.852 190.122 111.026 190.794L116.061 193.676L111.026 196.558C109.852 197.231 109.45 198.719 110.127 199.883C110.582 200.664 111.407 201.102 112.256 201.102C112.672 201.102 113.095 200.996 113.481 200.775L118.516 197.892V203.657C118.516 205.001 119.616 206.091 120.972 206.091C122.327 206.091 123.427 205.001 123.427 203.657V197.892L128.462 200.775C128.849 200.996 129.271 201.102 129.687 201.102C130.536 201.102 131.361 200.664 131.816 199.883C132.494 198.719 132.092 197.231 130.918 196.558L125.882 193.676L130.918 190.794C132.092 190.122 132.494 188.633 131.816 187.469V187.469Z" fill="#F1F1F1"/>
<path d="M250.103 196.558L245.068 193.676L250.103 190.794C251.277 190.122 251.68 188.633 251.001 187.469C250.323 186.304 248.822 185.906 247.647 186.577L242.612 189.46V183.695C242.612 182.351 241.512 181.261 240.157 181.261C238.801 181.261 237.701 182.351 237.701 183.695V189.46L232.666 186.577C231.492 185.904 229.991 186.304 229.313 187.469C228.635 188.633 229.037 190.122 230.211 190.794L235.246 193.676L230.211 196.558C229.037 197.231 228.635 198.719 229.313 199.883C229.767 200.664 230.592 201.102 231.441 201.102C231.857 201.102 232.28 200.996 232.666 200.775L237.701 197.892V203.657C237.701 205.001 238.801 206.091 240.157 206.091C241.512 206.091 242.612 205.001 242.612 203.657V197.892L247.647 200.775C248.034 200.996 248.456 201.102 248.872 201.102C249.721 201.102 250.546 200.664 251.001 199.883C251.68 198.719 251.277 197.231 250.103 196.558V196.558Z" fill="#F1F1F1"/>
<path d="M191.408 187.469C190.73 186.305 189.229 185.906 188.055 186.577L183.02 189.46V183.695C183.02 182.351 181.92 181.261 180.564 181.261C179.209 181.261 178.109 182.351 178.109 183.695V189.46L173.074 186.577C171.9 185.906 170.399 186.305 169.72 187.469C169.042 188.633 169.445 190.122 170.619 190.794L175.654 193.676L170.619 196.558C169.445 197.231 169.042 198.719 169.72 199.883C170.175 200.664 171 201.102 171.849 201.102C172.265 201.102 172.688 200.996 173.074 200.775L178.109 197.892V203.657C178.109 205.001 179.209 206.091 180.564 206.091C181.92 206.091 183.02 205.001 183.02 203.657V197.893L188.055 200.775C188.441 200.997 188.864 201.102 189.28 201.102C190.129 201.102 190.954 200.664 191.408 199.884C192.086 198.72 191.684 197.231 190.51 196.559L185.475 193.676L190.51 190.794C191.684 190.122 192.087 188.633 191.408 187.469V187.469Z" fill="#F1F1F1"/>
<path d="M160.991 209.195C160.313 208.03 158.812 207.632 157.638 208.303L152.603 211.186V205.422C152.603 204.078 151.503 202.987 150.147 202.987C148.792 202.987 147.692 204.078 147.692 205.422V211.186L142.657 208.303C141.482 207.631 139.981 208.03 139.303 209.195C138.626 210.36 139.027 211.848 140.201 212.521L145.236 215.402L140.201 218.284C139.027 218.957 138.626 220.445 139.303 221.609C139.758 222.39 140.583 222.828 141.432 222.828C141.848 222.828 142.27 222.722 142.657 222.501L147.692 219.618V225.383C147.692 226.727 148.792 227.818 150.147 227.818C151.503 227.818 152.603 226.727 152.603 225.383V219.618L157.638 222.501C158.024 222.722 158.447 222.828 158.863 222.828C159.712 222.828 160.537 222.39 160.991 221.609C161.67 220.445 161.267 218.957 160.093 218.284L155.058 215.402L160.093 212.521C161.267 211.848 161.67 210.36 160.991 209.195V209.195Z" fill="#EFEFEF"/>
<path d="M279.279 218.284L274.243 215.402L279.279 212.521C280.453 211.848 280.855 210.36 280.177 209.195C279.498 208.03 277.997 207.632 276.823 208.303L271.788 211.186V205.422C271.788 204.078 270.688 202.987 269.333 202.987C267.977 202.987 266.877 204.078 266.877 205.422V211.186L261.842 208.303C260.668 207.631 259.167 208.03 258.488 209.195C257.811 210.36 258.213 211.848 259.387 212.521L264.422 215.402L259.387 218.284C258.213 218.957 257.811 220.445 258.488 221.609C258.943 222.39 259.768 222.828 260.617 222.828C261.033 222.828 261.456 222.722 261.842 222.501L266.877 219.618V225.383C266.877 226.727 267.977 227.818 269.333 227.818C270.688 227.818 271.788 226.727 271.788 225.383V219.618L276.823 222.501C277.21 222.722 277.632 222.828 278.048 222.828C278.897 222.828 279.722 222.39 280.177 221.609C280.855 220.445 280.453 218.957 279.279 218.284V218.284Z" fill="#EFEFEF"/>
<path d="M220.584 209.195C219.906 208.031 218.405 207.632 217.231 208.303L212.196 211.186V205.422C212.196 204.078 211.096 202.987 209.74 202.987C208.385 202.987 207.285 204.078 207.285 205.422V211.186L202.25 208.303C201.076 207.632 199.575 208.031 198.896 209.195C198.218 210.36 198.62 211.848 199.795 212.521L204.83 215.402L199.795 218.284C198.62 218.957 198.218 220.445 198.896 221.609C199.351 222.39 200.176 222.828 201.025 222.828C201.441 222.828 201.864 222.722 202.25 222.501L207.285 219.618V225.383C207.285 226.727 208.385 227.818 209.74 227.818C211.096 227.818 212.196 226.727 212.196 225.383V219.62L217.231 222.501C217.617 222.723 218.039 222.828 218.456 222.828C219.304 222.828 220.129 222.39 220.584 221.611C221.261 220.446 220.86 218.957 219.686 218.285L214.651 215.402L219.686 212.521C220.86 211.848 221.263 210.36 220.584 209.195V209.195Z" fill="#EFEFEF"/>
<g filter="url(#filter5_f_404_86)">
<path d="M243.227 138.907C235.04 171.669 195.629 190.039 155.201 179.936C114.773 169.834 88.6369 135.084 96.8239 102.322C105.011 69.5593 144.421 51.1898 184.849 61.2924C225.277 71.395 251.414 106.144 243.227 138.907Z" fill="#BAC7CB" fill-opacity="0.2"/>
</g>
<path d="M236.3 141.464C236.3 157.615 223.183 170.708 206.997 170.708H100.962C79.4454 170.708 62 153.3 62 131.819C62 110.343 79.4454 92.9293 100.962 92.9293C102.892 92.9293 104.789 93.0772 106.648 93.3462C115.447 75.9057 133.543 63.9379 154.446 63.9379C179.74 63.9379 200.93 81.4666 206.497 105.016C207.052 107.368 207.453 109.776 207.684 112.23V112.236C223.545 112.598 236.3 125.543 236.3 141.464V141.464Z" fill="#BAC7CB"/>
<g filter="url(#filter6_b_404_86)">
<path d="M236.3 141.464C236.3 157.615 223.183 170.708 206.997 170.708H100.962C79.4454 170.708 62 153.3 62 131.819C62 110.343 79.4454 92.9293 100.962 92.9293C102.892 92.9293 104.789 93.0772 106.648 93.3462C115.447 75.9057 133.543 63.9379 154.446 63.9379C179.74 63.9379 200.93 81.4666 206.497 105.016C207.052 107.368 207.453 109.776 207.684 112.23V112.236C223.545 112.598 236.3 125.543 236.3 141.464V141.464Z" fill="url(#paint2_linear_404_86)"/>
</g>
<g filter="url(#filter7_b_404_86)">
<path fill-rule="evenodd" clip-rule="evenodd" d="M107.355 94.7027L106.471 94.5749C104.666 94.3138 102.828 94.1708 100.962 94.1708C80.1289 94.1708 63.2415 111.031 63.2415 131.819C63.2415 152.612 80.1288 169.466 100.962 169.466H206.997C222.5 169.466 235.058 156.927 235.058 141.464C235.058 126.222 222.846 113.824 207.655 113.478L206.442 113.45V112.289C206.216 109.913 205.827 107.58 205.288 105.302C199.851 82.301 179.153 65.1794 154.446 65.1794C134.029 65.1794 116.352 76.8677 107.757 93.9054L107.355 94.7027ZM207.684 112.23V112.236C223.545 112.598 236.3 125.543 236.3 141.464C236.3 157.615 223.183 170.708 206.997 170.708H100.962C79.4454 170.708 62 153.3 62 131.819C62 110.343 79.4454 92.9293 100.962 92.9293C102.892 92.9293 104.789 93.0772 106.648 93.3462C115.447 75.9057 133.543 63.9379 154.446 63.9379C179.74 63.9379 200.93 81.4666 206.497 105.016C207.052 107.368 207.453 109.776 207.684 112.23Z" fill="url(#paint3_linear_404_86)"/>
</g>
<defs>
<filter id="filter0_f_404_86" x="0" y="66" width="282" height="255.3" filterUnits="userSpaceOnUse" color-interpolation-filters="sRGB">
<feFlood flood-opacity="0" result="BackgroundImageFix"/>
<feBlend mode="normal" in="SourceGraphic" in2="BackgroundImageFix" result="shape"/>
<feGaussianBlur stdDeviation="50" result="effect1_foregroundBlur_404_86"/>
</filter>
<filter id="filter1_f_404_86" x="44" y="87.7001" width="282" height="255.3" filterUnits="userSpaceOnUse" color-interpolation-filters="sRGB">
<feFlood flood-opacity="0" result="BackgroundImageFix"/>
<feBlend mode="normal" in="SourceGraphic" in2="BackgroundImageFix" result="shape"/>
<feGaussianBlur stdDeviation="50" result="effect1_foregroundBlur_404_86"/>
</filter>
<filter id="filter2_f_404_86" x="112" y="70.2" width="282" height="255.3" filterUnits="userSpaceOnUse" color-interpolation-filters="sRGB">
<feFlood flood-opacity="0" result="BackgroundImageFix"/>
<feBlend mode="normal" in="SourceGraphic" in2="BackgroundImageFix" result="shape"/>
<feGaussianBlur stdDeviation="50" result="effect1_foregroundBlur_404_86"/>
</filter>
<filter id="filter3_b_404_86" x="30.9622" y="-31.0378" width="299.205" height="207.333" filterUnits="userSpaceOnUse" color-interpolation-filters="sRGB">
<feFlood flood-opacity="0" result="BackgroundImageFix"/>
<feGaussianBlur in="BackgroundImageFix" stdDeviation="15.5189"/>
<feComposite in2="SourceAlpha" operator="in" result="effect1_backgroundBlur_404_86"/>
<feBlend mode="normal" in="SourceGraphic" in2="effect1_backgroundBlur_404_86" result="shape"/>
</filter>
<filter id="filter4_b_404_86" x="30.9622" y="-31.0378" width="299.205" height="207.333" filterUnits="userSpaceOnUse" color-interpolation-filters="sRGB">
<feFlood flood-opacity="0" result="BackgroundImageFix"/>
<feGaussianBlur in="BackgroundImageFix" stdDeviation="15.5189"/>
<feComposite in2="SourceAlpha" operator="in" result="effect1_backgroundBlur_404_86"/>
<feBlend mode="normal" in="SourceGraphic" in2="effect1_backgroundBlur_404_86" result="shape"/>
</filter>
<filter id="filter5_f_404_86" x="80.4252" y="43.6215" width="179.2" height="153.986" filterUnits="userSpaceOnUse" color-interpolation-filters="sRGB">
<feFlood flood-opacity="0" result="BackgroundImageFix"/>
<feBlend mode="normal" in="SourceGraphic" in2="BackgroundImageFix" result="shape"/>
<feGaussianBlur stdDeviation="7.44908" result="effect1_foregroundBlur_404_86"/>
</filter>
<filter id="filter6_b_404_86" x="30.9622" y="32.9" width="236.376" height="168.846" filterUnits="userSpaceOnUse" color-interpolation-filters="sRGB">
<feFlood flood-opacity="0" result="BackgroundImageFix"/>
<feGaussianBlur in="BackgroundImageFix" stdDeviation="15.5189"/>
<feComposite in2="SourceAlpha" operator="in" result="effect1_backgroundBlur_404_86"/>
<feBlend mode="normal" in="SourceGraphic" in2="effect1_backgroundBlur_404_86" result="shape"/>
</filter>
<filter id="filter7_b_404_86" x="30.9622" y="32.9" width="236.376" height="168.846" filterUnits="userSpaceOnUse" color-interpolation-filters="sRGB">
<feFlood flood-opacity="0" result="BackgroundImageFix"/>
<feGaussianBlur in="BackgroundImageFix" stdDeviation="15.5189"/>
<feComposite in2="SourceAlpha" operator="in" result="effect1_backgroundBlur_404_86"/>
<feBlend mode="normal" in="SourceGraphic" in2="effect1_backgroundBlur_404_86" result="shape"/>
</filter>
<linearGradient id="paint0_linear_404_86" x1="99.5558" y1="25.451" x2="267.781" y2="145.257" gradientUnits="userSpaceOnUse">
<stop offset="0.416176" stop-color="white" stop-opacity="0.7"/>
<stop offset="1" stop-color="white" stop-opacity="0"/>
</linearGradient>
<linearGradient id="paint1_linear_404_86" x1="43.8415" y1="38.2772" x2="128.744" y2="99.3442" gradientUnits="userSpaceOnUse">
<stop stop-color="white"/>
<stop offset="1" stop-color="white" stop-opacity="0"/>
</linearGradient>
<linearGradient id="paint2_linear_404_86" x1="89.6051" y1="82.6455" x2="213.258" y2="170.708" gradientUnits="userSpaceOnUse">
<stop offset="0.416176" stop-color="white" stop-opacity="0.7"/>
<stop offset="1" stop-color="white" stop-opacity="0"/>
</linearGradient>
<linearGradient id="paint3_linear_404_86" x1="48.6527" y1="92.0732" x2="111.06" y2="136.96" gradientUnits="userSpaceOnUse">
<stop stop-color="white"/>
<stop offset="1" stop-color="white" stop-opacity="0"/>
</linearGradient>
</defs>
</svg>
