<svg width="346" height="315" viewBox="0 0 346 315" fill="none" xmlns="http://www.w3.org/2000/svg">
<g filter="url(#filter0_f_403_45)">
<rect x="98" y="77" width="171" height="161" rx="80.5" fill="#FFEF9A"/>
</g>
<path d="M237.129 157.006C237.129 186.832 212.95 211.012 183.123 211.012C153.296 211.012 129.117 186.832 129.117 157.006C129.117 127.179 153.296 103 183.123 103C212.95 103 237.129 127.179 237.129 157.006Z" fill="url(#paint0_linear_403_45)"/>
<path d="M237.129 234.543C237.129 256.516 219.284 274.329 197.263 274.329H53.0066C23.7339 274.329 0 250.646 0 221.421C0 192.204 23.7339 168.514 53.0066 168.514C55.6319 168.514 58.2124 168.715 60.7425 169.081C72.713 145.354 97.3313 129.072 125.77 129.072C160.181 129.072 189.009 152.919 196.583 184.957C197.338 188.156 197.884 191.433 198.198 194.772V194.78C219.776 195.272 237.129 212.884 237.129 234.543V234.543Z" fill="#BAC7CB" fill-opacity="0.4"/>
<g filter="url(#filter1_b_403_45)">
<path d="M237.129 234.543C237.129 256.516 219.284 274.329 197.263 274.329H53.0066C23.7339 274.329 0 250.646 0 221.421C0 192.204 23.7339 168.514 53.0066 168.514C55.6319 168.514 58.2124 168.715 60.7425 169.081C72.713 145.354 97.3313 129.072 125.77 129.072C160.181 129.072 189.009 152.919 196.583 184.957C197.338 188.156 197.884 191.433 198.198 194.772V194.78C219.776 195.272 237.129 212.884 237.129 234.543Z" fill="url(#paint1_linear_403_45)"/>
</g>
<g filter="url(#filter2_b_403_45)">
<path fill-rule="evenodd" clip-rule="evenodd" d="M61.4487 170.437L60.5648 170.309C58.0893 169.951 55.5683 169.755 53.0066 169.755C24.4174 169.755 1.24151 192.892 1.24151 221.421C1.24151 249.958 24.4173 273.087 53.0066 273.087H197.263C218.6 273.087 235.887 255.828 235.887 234.543C235.887 213.562 219.078 196.498 198.169 196.021L196.956 195.994V194.83C196.647 191.57 196.113 188.369 195.374 185.243C187.931 153.753 159.594 130.313 125.77 130.313C97.8172 130.313 73.6182 146.316 61.851 169.64L61.4487 170.437ZM198.198 194.772V194.78C219.776 195.272 237.129 212.884 237.129 234.543C237.129 256.516 219.284 274.329 197.263 274.329H53.0066C23.7339 274.329 0 250.646 0 221.421C0 192.204 23.7339 168.514 53.0066 168.514C55.6319 168.514 58.2124 168.715 60.7425 169.081C72.713 145.354 97.3313 129.072 125.77 129.072C160.181 129.072 189.009 152.919 196.583 184.957C197.338 188.156 197.884 191.433 198.198 194.772Z" fill="url(#paint2_linear_403_45)"/>
</g>
<defs>
<filter id="filter0_f_403_45" x="21" y="0" width="325" height="315" filterUnits="userSpaceOnUse" color-interpolation-filters="sRGB">
<feFlood flood-opacity="0" result="BackgroundImageFix"/>
<feBlend mode="normal" in="SourceGraphic" in2="BackgroundImageFix" result="shape"/>
<feGaussianBlur stdDeviation="38.5" result="effect1_foregroundBlur_403_45"/>
</filter>
<filter id="filter1_b_403_45" x="-31.0378" y="98.0339" width="299.205" height="207.333" filterUnits="userSpaceOnUse" color-interpolation-filters="sRGB">
<feFlood flood-opacity="0" result="BackgroundImageFix"/>
<feGaussianBlur in="BackgroundImageFix" stdDeviation="15.5189"/>
<feComposite in2="SourceAlpha" operator="in" result="effect1_backgroundBlur_403_45"/>
<feBlend mode="normal" in="SourceGraphic" in2="effect1_backgroundBlur_403_45" result="shape"/>
</filter>
<filter id="filter2_b_403_45" x="-31.0378" y="98.0339" width="299.205" height="207.333" filterUnits="userSpaceOnUse" color-interpolation-filters="sRGB">
<feFlood flood-opacity="0" result="BackgroundImageFix"/>
<feGaussianBlur in="BackgroundImageFix" stdDeviation="15.5189"/>
<feComposite in2="SourceAlpha" operator="in" result="effect1_backgroundBlur_403_45"/>
<feBlend mode="normal" in="SourceGraphic" in2="effect1_backgroundBlur_403_45" result="shape"/>
</filter>
<linearGradient id="paint0_linear_403_45" x1="204.878" y1="108" x2="159.378" y2="211" gradientUnits="userSpaceOnUse">
<stop stop-color="#FFD88B"/>
<stop offset="1" stop-color="#FFA900"/>
</linearGradient>
<linearGradient id="paint1_linear_403_45" x1="37.5558" y1="154.523" x2="205.781" y2="274.329" gradientUnits="userSpaceOnUse">
<stop offset="0.416176" stop-color="white" stop-opacity="0.7"/>
<stop offset="1" stop-color="white" stop-opacity="0"/>
</linearGradient>
<linearGradient id="paint2_linear_403_45" x1="-18.1585" y1="167.349" x2="66.744" y2="228.416" gradientUnits="userSpaceOnUse">
<stop stop-color="white"/>
<stop offset="1" stop-color="white" stop-opacity="0"/>
</linearGradient>
</defs>
</svg>
