<svg width="408" height="338" viewBox="0 0 408 338" fill="none" xmlns="http://www.w3.org/2000/svg">
<g filter="url(#filter0_f_403_178)">
<rect x="159.444" y="77" width="171" height="161" rx="80.5" fill="#E3D9A6"/>
</g>
<path d="M298.337 157.006C298.337 186.832 274.158 211.012 244.331 211.012C214.504 211.012 190.325 186.832 190.325 157.006C190.325 127.179 214.504 103 244.331 103C274.158 103 298.337 127.179 298.337 157.006Z" fill="url(#paint0_linear_403_178)"/>
<path d="M312.685 234.828C312.685 260.61 291.746 281.511 265.907 281.511H96.6406C62.2926 281.511 34.4438 253.723 34.4438 219.43C34.4438 185.148 62.2926 157.35 96.6406 157.35C99.721 157.35 102.749 157.586 105.718 158.015C119.764 130.175 148.65 111.07 182.019 111.07C222.397 111.07 256.223 139.052 265.109 176.645C265.996 180.398 266.636 184.243 267.004 188.161V188.171C292.324 188.748 312.685 209.413 312.685 234.828V234.828Z" fill="#BAC7CB" fill-opacity="0.4"/>
<g filter="url(#filter1_b_403_178)">
<path d="M312.685 234.828C312.685 260.61 291.746 281.511 265.907 281.511H96.6406C62.2926 281.511 34.4438 253.723 34.4438 219.43C34.4438 185.148 62.2926 157.35 96.6406 157.35C99.721 157.35 102.749 157.586 105.718 158.015C119.764 130.175 148.65 111.07 182.019 111.07C222.397 111.07 256.223 139.052 265.109 176.645C265.996 180.398 266.636 184.243 267.004 188.161V188.171C292.324 188.748 312.685 209.413 312.685 234.828V234.828Z" fill="url(#paint1_linear_403_178)"/>
</g>
<g filter="url(#filter2_b_403_178)">
<path fill-rule="evenodd" clip-rule="evenodd" d="M106.546 159.607L105.509 159.457C102.605 159.037 99.6464 158.807 96.6406 158.807C63.0946 158.807 35.9006 185.955 35.9006 219.43C35.9006 252.915 63.0945 280.054 96.6406 280.054H265.907C290.944 280.054 311.229 259.803 311.229 234.828C311.229 210.209 291.505 190.186 266.971 189.627L265.547 189.595V188.229C265.185 184.404 264.558 180.648 263.692 176.98C254.957 140.031 221.708 112.527 182.019 112.527C149.22 112.527 120.826 131.303 107.018 158.672L106.546 159.607ZM267.004 188.161V188.171C292.324 188.748 312.685 209.413 312.685 234.828C312.685 260.61 291.746 281.511 265.907 281.511H96.6406C62.2926 281.511 34.4438 253.723 34.4438 219.43C34.4438 185.148 62.2926 157.35 96.6406 157.35C99.721 157.35 102.749 157.586 105.718 158.015C119.764 130.175 148.65 111.07 182.019 111.07C222.397 111.07 256.223 139.052 265.109 176.645C265.996 180.398 266.636 184.243 267.004 188.161Z" fill="url(#paint2_linear_403_178)"/>
</g>
<g filter="url(#filter3_f_403_178)">
<path d="M170.961 293.596C152.929 317.925 109.911 316.598 74.8792 290.633C39.8469 264.668 26.0655 223.896 44.0977 199.567C62.1299 175.238 105.147 176.565 140.179 202.53C175.212 228.496 188.993 269.267 170.961 293.596Z" fill="#BAC7CB" fill-opacity="0.2"/>
</g>
<path d="M174.3 271.534C174.3 287.685 161.183 300.778 144.997 300.778H38.9621C17.4454 300.778 0 283.37 0 261.889C0 240.413 17.4454 222.999 38.9621 222.999C40.8918 222.999 42.7886 223.147 44.6484 223.416C53.4472 205.976 71.5427 194.008 92.4463 194.008C117.74 194.008 138.93 211.537 144.497 235.086C145.052 237.437 145.453 239.846 145.684 242.3V242.306C161.545 242.668 174.3 255.613 174.3 271.534V271.534Z" fill="#BAC7CB"/>
<g filter="url(#filter4_b_403_178)">
<path d="M174.744 271.526C174.744 287.677 161.627 300.77 145.44 300.77H39.4059C17.8892 300.77 0.443726 283.363 0.443726 261.881C0.443726 240.405 17.8892 222.991 39.4059 222.991C41.3356 222.991 43.2323 223.139 45.0921 223.408C53.8909 205.968 71.9864 194 92.8901 194C118.184 194 139.373 211.529 144.94 235.078C145.496 237.43 145.897 239.838 146.127 242.292V242.299C161.989 242.66 174.744 255.605 174.744 271.526Z" fill="url(#paint3_linear_403_178)"/>
</g>
<g filter="url(#filter5_b_403_178)">
<path fill-rule="evenodd" clip-rule="evenodd" d="M45.3545 224.773L44.4706 224.645C42.6655 224.384 40.8283 224.241 38.9621 224.241C18.1289 224.241 1.24151 241.101 1.24151 261.889C1.24151 282.682 18.1288 299.536 38.9621 299.536H144.997C160.5 299.536 173.058 286.997 173.058 271.534C173.058 256.292 160.846 243.894 145.655 243.548L144.442 243.52V242.359C144.216 239.983 143.827 237.65 143.288 235.372C137.851 212.371 117.153 195.249 92.4463 195.249C72.0286 195.249 54.3524 206.938 45.7568 223.975L45.3545 224.773ZM145.684 242.3V242.306C161.545 242.668 174.3 255.613 174.3 271.534C174.3 287.685 161.183 300.778 144.997 300.778H38.9621C17.4454 300.778 0 283.37 0 261.889C0 240.413 17.4454 222.999 38.9621 222.999C40.8918 222.999 42.7886 223.147 44.6484 223.416C53.4472 205.976 71.5427 194.008 92.4463 194.008C117.74 194.008 138.93 211.537 144.497 235.086C145.052 237.437 145.453 239.846 145.684 242.3Z" fill="url(#paint4_linear_403_178)"/>
</g>
<defs>
<filter id="filter0_f_403_178" x="82.4438" y="0" width="325" height="315" filterUnits="userSpaceOnUse" color-interpolation-filters="sRGB">
<feFlood flood-opacity="0" result="BackgroundImageFix"/>
<feBlend mode="normal" in="SourceGraphic" in2="BackgroundImageFix" result="shape"/>
<feGaussianBlur stdDeviation="38.5" result="effect1_foregroundBlur_403_178"/>
</filter>
<filter id="filter1_b_403_178" x="3.40602" y="80.032" width="340.317" height="232.517" filterUnits="userSpaceOnUse" color-interpolation-filters="sRGB">
<feFlood flood-opacity="0" result="BackgroundImageFix"/>
<feGaussianBlur in="BackgroundImageFix" stdDeviation="15.5189"/>
<feComposite in2="SourceAlpha" operator="in" result="effect1_backgroundBlur_403_178"/>
<feBlend mode="normal" in="SourceGraphic" in2="effect1_backgroundBlur_403_178" result="shape"/>
</filter>
<filter id="filter2_b_403_178" x="3.40602" y="80.032" width="340.317" height="232.517" filterUnits="userSpaceOnUse" color-interpolation-filters="sRGB">
<feFlood flood-opacity="0" result="BackgroundImageFix"/>
<feGaussianBlur in="BackgroundImageFix" stdDeviation="15.5189"/>
<feComposite in2="SourceAlpha" operator="in" result="effect1_backgroundBlur_403_178"/>
<feBlend mode="normal" in="SourceGraphic" in2="effect1_backgroundBlur_403_178" result="shape"/>
</filter>
<filter id="filter3_f_403_178" x="21.2748" y="167.256" width="172.509" height="158.652" filterUnits="userSpaceOnUse" color-interpolation-filters="sRGB">
<feFlood flood-opacity="0" result="BackgroundImageFix"/>
<feBlend mode="normal" in="SourceGraphic" in2="BackgroundImageFix" result="shape"/>
<feGaussianBlur stdDeviation="7.44908" result="effect1_foregroundBlur_403_178"/>
</filter>
<filter id="filter4_b_403_178" x="-30.5941" y="162.962" width="236.376" height="168.846" filterUnits="userSpaceOnUse" color-interpolation-filters="sRGB">
<feFlood flood-opacity="0" result="BackgroundImageFix"/>
<feGaussianBlur in="BackgroundImageFix" stdDeviation="15.5189"/>
<feComposite in2="SourceAlpha" operator="in" result="effect1_backgroundBlur_403_178"/>
<feBlend mode="normal" in="SourceGraphic" in2="effect1_backgroundBlur_403_178" result="shape"/>
</filter>
<filter id="filter5_b_403_178" x="-31.0378" y="162.97" width="236.376" height="168.846" filterUnits="userSpaceOnUse" color-interpolation-filters="sRGB">
<feFlood flood-opacity="0" result="BackgroundImageFix"/>
<feGaussianBlur in="BackgroundImageFix" stdDeviation="15.5189"/>
<feComposite in2="SourceAlpha" operator="in" result="effect1_backgroundBlur_403_178"/>
<feBlend mode="normal" in="SourceGraphic" in2="effect1_backgroundBlur_403_178" result="shape"/>
</filter>
<linearGradient id="paint0_linear_403_178" x1="266.086" y1="108" x2="220.586" y2="211" gradientUnits="userSpaceOnUse">
<stop stop-color="#FFD88B"/>
<stop offset="1" stop-color="#FFA900"/>
</linearGradient>
<linearGradient id="paint1_linear_403_178" x1="78.5109" y1="140.933" x2="275.902" y2="281.511" gradientUnits="userSpaceOnUse">
<stop offset="0.416176" stop-color="white" stop-opacity="0.7"/>
<stop offset="1" stop-color="white" stop-opacity="0"/>
</linearGradient>
<linearGradient id="paint2_linear_403_178" x1="13.1371" y1="155.983" x2="112.76" y2="227.638" gradientUnits="userSpaceOnUse">
<stop stop-color="white"/>
<stop offset="1" stop-color="white" stop-opacity="0"/>
</linearGradient>
<linearGradient id="paint3_linear_403_178" x1="28.0488" y1="212.708" x2="151.701" y2="300.77" gradientUnits="userSpaceOnUse">
<stop offset="0.416176" stop-color="white" stop-opacity="0.7"/>
<stop offset="1" stop-color="white" stop-opacity="0"/>
</linearGradient>
<linearGradient id="paint4_linear_403_178" x1="-13.3473" y1="222.143" x2="49.0597" y2="267.03" gradientUnits="userSpaceOnUse">
<stop stop-color="white"/>
<stop offset="1" stop-color="white" stop-opacity="0"/>
</linearGradient>
</defs>
</svg>
