<svg width="394" height="328" viewBox="0 0 394 328" fill="none" xmlns="http://www.w3.org/2000/svg">
<path d="M315.129 105.472C315.129 127.444 297.284 145.257 275.263 145.257H131.007C101.734 145.257 78 121.575 78 92.3494C78 63.1326 101.734 39.4418 131.007 39.4418C133.632 39.4418 136.212 39.643 138.743 40.009C150.713 16.2818 175.331 0 203.77 0C238.181 0 267.009 23.8472 274.583 55.8857C275.338 59.0845 275.884 62.3616 276.198 65.7001V65.7085C297.776 66.2001 315.129 83.8118 315.129 105.472V105.472Z" fill="#BAC7CB" fill-opacity="0.4"/>
<g filter="url(#filter0_b_405_144)">
<path d="M315.129 105.472C315.129 127.444 297.284 145.257 275.263 145.257H131.007C101.734 145.257 78 121.575 78 92.3494C78 63.1326 101.734 39.4418 131.007 39.4418C133.632 39.4418 136.212 39.643 138.743 40.009C150.713 16.2818 175.331 0 203.77 0C238.181 0 267.009 23.8472 274.583 55.8857C275.338 59.0845 275.884 62.3616 276.198 65.7001V65.7085C297.776 66.2001 315.129 83.8118 315.129 105.472V105.472Z" fill="url(#paint0_linear_405_144)"/>
</g>
<g filter="url(#filter1_b_405_144)">
<path fill-rule="evenodd" clip-rule="evenodd" d="M139.449 41.3655L138.565 41.2377C136.089 40.8796 133.568 40.6833 131.007 40.6833C102.417 40.6833 79.2415 63.8205 79.2415 92.3494C79.2415 120.887 102.417 144.016 131.007 144.016H275.263C296.6 144.016 313.887 126.756 313.887 105.472C313.887 84.4906 297.078 67.4261 276.169 66.9496L274.956 66.922V65.7585C274.647 62.4983 274.113 59.2972 273.374 56.1713C265.931 24.6817 237.594 1.24151 203.77 1.24151C175.817 1.24151 151.618 17.2439 139.851 40.5682L139.449 41.3655ZM276.198 65.7001V65.7085C297.776 66.2001 315.129 83.8118 315.129 105.472C315.129 127.444 297.284 145.257 275.263 145.257H131.007C101.734 145.257 78 121.575 78 92.3494C78 63.1326 101.734 39.4418 131.007 39.4418C133.632 39.4418 136.212 39.643 138.743 40.009C150.713 16.2818 175.331 0 203.77 0C238.181 0 267.009 23.8473 274.583 55.8857C275.338 59.0845 275.884 62.3616 276.198 65.7001Z" fill="url(#paint1_linear_405_144)"/>
</g>
<g filter="url(#filter2_f_405_144)">
<path d="M263.651 126.049C263.651 165.537 226.043 197.549 179.651 197.549C133.259 197.549 95.6508 165.537 95.6508 126.049C95.6508 86.5605 133.259 54.5488 179.651 54.5488C226.043 54.5488 263.651 86.5605 263.651 126.049Z" fill="#BAC7CB" fill-opacity="0.2"/>
</g>
<path d="M252.3 141.464C252.3 157.615 239.183 170.708 222.997 170.708H116.962C95.4454 170.708 78 153.3 78 131.819C78 110.343 95.4454 92.9292 116.962 92.9292C118.892 92.9292 120.789 93.077 122.648 93.346C131.447 75.9056 149.543 63.9377 170.446 63.9377C195.74 63.9377 216.93 81.4665 222.497 105.016C223.052 107.367 223.453 109.776 223.684 112.23V112.236C239.545 112.598 252.3 125.543 252.3 141.464V141.464Z" fill="#BAC7CB"/>
<g filter="url(#filter3_b_405_144)">
<path d="M252.3 141.464C252.3 157.615 239.183 170.708 222.997 170.708H116.962C95.4454 170.708 78 153.3 78 131.819C78 110.343 95.4454 92.9292 116.962 92.9292C118.892 92.9292 120.789 93.077 122.648 93.346C131.447 75.9056 149.543 63.9377 170.446 63.9377C195.74 63.9377 216.93 81.4665 222.497 105.016C223.052 107.367 223.453 109.776 223.684 112.23V112.236C239.545 112.598 252.3 125.543 252.3 141.464V141.464Z" fill="url(#paint2_linear_405_144)"/>
</g>
<g filter="url(#filter4_b_405_144)">
<path fill-rule="evenodd" clip-rule="evenodd" d="M123.355 94.7026L122.471 94.5748C120.666 94.3137 118.828 94.1707 116.962 94.1707C96.1289 94.1707 79.2415 111.031 79.2415 131.819C79.2415 152.612 96.1288 169.466 116.962 169.466H222.997C238.5 169.466 251.058 156.927 251.058 141.464C251.058 126.222 238.846 113.824 223.655 113.477L222.442 113.45V112.289C222.216 109.913 221.827 107.58 221.288 105.302C215.851 82.3009 195.153 65.1793 170.446 65.1793C150.029 65.1793 132.352 76.8676 123.757 93.9053L123.355 94.7026ZM223.684 112.23V112.236C239.545 112.598 252.3 125.543 252.3 141.464C252.3 157.615 239.183 170.708 222.997 170.708H116.962C95.4454 170.708 78 153.3 78 131.819C78 110.343 95.4454 92.9292 116.962 92.9292C118.892 92.9292 120.789 93.077 122.648 93.346C131.447 75.9056 149.543 63.9377 170.446 63.9377C195.74 63.9377 216.93 81.4665 222.497 105.016C223.052 107.367 223.453 109.776 223.684 112.23Z" fill="url(#paint3_linear_405_144)"/>
</g>
<path d="M256.757 219.127C250.243 219.127 244.943 213.696 244.943 207.022C244.943 205.68 246.005 204.593 247.313 204.593C248.622 204.593 249.683 205.68 249.683 207.022C249.683 211.018 252.857 214.271 256.757 214.271C260.659 214.271 263.833 211.018 263.833 207.022C263.833 203.024 260.659 199.773 256.757 199.773H154.861C153.552 199.773 152.491 198.685 152.491 197.345C152.491 196.004 153.552 194.917 154.861 194.917H256.757C263.272 194.917 268.573 200.347 268.573 207.022C268.573 213.696 263.272 219.127 256.757 219.127V219.127Z" fill="#777777"/>
<path d="M148.862 209.816H126.946C125.627 209.816 124.557 208.843 124.557 207.643C124.557 206.443 125.627 205.47 126.946 205.47H148.862C150.18 205.47 151.25 206.443 151.25 207.643C151.25 208.843 150.18 209.816 148.862 209.816Z" fill="#777777"/>
<path d="M212.057 228.438C205.538 228.438 200.235 223.286 200.235 216.954C200.235 215.682 201.297 214.65 202.606 214.65C203.915 214.65 204.978 215.682 204.978 216.954C204.978 220.746 208.153 223.831 212.057 223.831C215.96 223.831 219.136 220.746 219.136 216.954C219.136 213.163 215.96 210.077 212.057 210.077H157.966C156.656 210.077 155.595 209.046 155.595 207.773C155.595 206.501 156.656 205.47 157.966 205.47H212.057C218.575 205.47 223.878 210.622 223.878 216.954C223.878 223.286 218.575 228.438 212.057 228.438V228.438Z" fill="#777777"/>
<path d="M189.22 220.989H136.869C135.555 220.989 134.489 219.878 134.489 218.505C134.489 217.134 135.555 216.023 136.869 216.023H189.22C190.534 216.023 191.599 217.134 191.599 218.505C191.599 219.878 190.534 220.989 189.22 220.989Z" fill="#777777"/>
<path d="M168.175 189.951H132.463C131.182 189.951 130.144 188.978 130.144 187.778C130.144 186.578 131.182 185.606 132.463 185.606H168.175C169.455 185.606 170.493 186.578 170.493 187.778C170.493 188.978 169.455 189.951 168.175 189.951Z" fill="#777777"/>
<g filter="url(#filter5_f_405_144)">
<rect x="100" y="151" width="82" height="55.3" rx="27.65" fill="white"/>
</g>
<g filter="url(#filter6_f_405_144)">
<rect x="144" y="172.7" width="82" height="55.3" rx="27.65" fill="white"/>
</g>
<g filter="url(#filter7_f_405_144)">
<rect x="212" y="155.2" width="82" height="55.3" rx="27.65" fill="white"/>
</g>
<defs>
<filter id="filter0_b_405_144" x="46.9622" y="-31.0378" width="299.205" height="207.333" filterUnits="userSpaceOnUse" color-interpolation-filters="sRGB">
<feFlood flood-opacity="0" result="BackgroundImageFix"/>
<feGaussianBlur in="BackgroundImageFix" stdDeviation="15.5189"/>
<feComposite in2="SourceAlpha" operator="in" result="effect1_backgroundBlur_405_144"/>
<feBlend mode="normal" in="SourceGraphic" in2="effect1_backgroundBlur_405_144" result="shape"/>
</filter>
<filter id="filter1_b_405_144" x="46.9622" y="-31.0378" width="299.205" height="207.333" filterUnits="userSpaceOnUse" color-interpolation-filters="sRGB">
<feFlood flood-opacity="0" result="BackgroundImageFix"/>
<feGaussianBlur in="BackgroundImageFix" stdDeviation="15.5189"/>
<feComposite in2="SourceAlpha" operator="in" result="effect1_backgroundBlur_405_144"/>
<feBlend mode="normal" in="SourceGraphic" in2="effect1_backgroundBlur_405_144" result="shape"/>
</filter>
<filter id="filter2_f_405_144" x="80.7526" y="39.6507" width="197.796" height="172.796" filterUnits="userSpaceOnUse" color-interpolation-filters="sRGB">
<feFlood flood-opacity="0" result="BackgroundImageFix"/>
<feBlend mode="normal" in="SourceGraphic" in2="BackgroundImageFix" result="shape"/>
<feGaussianBlur stdDeviation="7.44908" result="effect1_foregroundBlur_405_144"/>
</filter>
<filter id="filter3_b_405_144" x="46.9622" y="32.8999" width="236.376" height="168.846" filterUnits="userSpaceOnUse" color-interpolation-filters="sRGB">
<feFlood flood-opacity="0" result="BackgroundImageFix"/>
<feGaussianBlur in="BackgroundImageFix" stdDeviation="15.5189"/>
<feComposite in2="SourceAlpha" operator="in" result="effect1_backgroundBlur_405_144"/>
<feBlend mode="normal" in="SourceGraphic" in2="effect1_backgroundBlur_405_144" result="shape"/>
</filter>
<filter id="filter4_b_405_144" x="46.9622" y="32.8999" width="236.376" height="168.846" filterUnits="userSpaceOnUse" color-interpolation-filters="sRGB">
<feFlood flood-opacity="0" result="BackgroundImageFix"/>
<feGaussianBlur in="BackgroundImageFix" stdDeviation="15.5189"/>
<feComposite in2="SourceAlpha" operator="in" result="effect1_backgroundBlur_405_144"/>
<feBlend mode="normal" in="SourceGraphic" in2="effect1_backgroundBlur_405_144" result="shape"/>
</filter>
<filter id="filter5_f_405_144" x="0" y="51" width="282" height="255.3" filterUnits="userSpaceOnUse" color-interpolation-filters="sRGB">
<feFlood flood-opacity="0" result="BackgroundImageFix"/>
<feBlend mode="normal" in="SourceGraphic" in2="BackgroundImageFix" result="shape"/>
<feGaussianBlur stdDeviation="50" result="effect1_foregroundBlur_405_144"/>
</filter>
<filter id="filter6_f_405_144" x="44" y="72.7" width="282" height="255.3" filterUnits="userSpaceOnUse" color-interpolation-filters="sRGB">
<feFlood flood-opacity="0" result="BackgroundImageFix"/>
<feBlend mode="normal" in="SourceGraphic" in2="BackgroundImageFix" result="shape"/>
<feGaussianBlur stdDeviation="50" result="effect1_foregroundBlur_405_144"/>
</filter>
<filter id="filter7_f_405_144" x="112" y="55.2" width="282" height="255.3" filterUnits="userSpaceOnUse" color-interpolation-filters="sRGB">
<feFlood flood-opacity="0" result="BackgroundImageFix"/>
<feBlend mode="normal" in="SourceGraphic" in2="BackgroundImageFix" result="shape"/>
<feGaussianBlur stdDeviation="50" result="effect1_foregroundBlur_405_144"/>
</filter>
<linearGradient id="paint0_linear_405_144" x1="115.556" y1="25.451" x2="283.781" y2="145.257" gradientUnits="userSpaceOnUse">
<stop offset="0.416176" stop-color="white" stop-opacity="0.7"/>
<stop offset="1" stop-color="white" stop-opacity="0"/>
</linearGradient>
<linearGradient id="paint1_linear_405_144" x1="59.8415" y1="38.2772" x2="144.744" y2="99.3442" gradientUnits="userSpaceOnUse">
<stop stop-color="white"/>
<stop offset="1" stop-color="white" stop-opacity="0"/>
</linearGradient>
<linearGradient id="paint2_linear_405_144" x1="105.605" y1="82.6453" x2="229.258" y2="170.708" gradientUnits="userSpaceOnUse">
<stop offset="0.416176" stop-color="white" stop-opacity="0.7"/>
<stop offset="1" stop-color="white" stop-opacity="0"/>
</linearGradient>
<linearGradient id="paint3_linear_405_144" x1="64.6527" y1="92.0731" x2="127.06" y2="136.96" gradientUnits="userSpaceOnUse">
<stop stop-color="white"/>
<stop offset="1" stop-color="white" stop-opacity="0"/>
</linearGradient>
</defs>
</svg>
