<svg xmlns="http://www.w3.org/2000/svg" xmlns:xlink="http://www.w3.org/1999/xlink" width="500" zoomAndPan="magnify" viewBox="0 0 375 374.999991" height="500" preserveAspectRatio="xMidYMid meet" version="1.0"><defs><g/><clipPath id="4c038609ac"><path d="M 49 84 L 327 84 L 327 227 L 49 227 Z M 49 84 " clip-rule="nonzero"/></clipPath><clipPath id="809f9f4106"><path d="M 326.28125 226.1875 L 49.910156 226.832031 L 49.578125 85.105469 L 325.949219 84.460938 Z M 326.28125 226.1875 " clip-rule="nonzero"/></clipPath><clipPath id="6ce71e2cb1"><path d="M 326.28125 226.1875 L 49.910156 226.832031 L 49.578125 85.105469 L 325.949219 84.460938 Z M 326.28125 226.1875 " clip-rule="nonzero"/></clipPath></defs><rect x="-37.5" width="450" fill="#ffffff" y="-37.499999" height="449.999989" fill-opacity="1"/><rect x="-37.5" width="450" fill="#ffffff" y="-37.499999" height="449.999989" fill-opacity="1"/><g clip-path="url(#4c038609ac)"><g clip-path="url(#809f9f4106)"><g clip-path="url(#6ce71e2cb1)"><path fill="#000000" d="M 149.046875 226.605469 L 187.578125 194.0625 L 226.257812 226.425781 L 326.050781 142.140625 L 325.914062 83.761719 L 309.46875 83.800781 L 309.585938 134.519531 L 269.011719 168.789062 L 269.007812 168.789062 L 226.207031 204.941406 L 200.332031 183.292969 L 248.839844 142.320312 L 248.707031 84.003906 L 125.9375 84.289062 L 126.074219 142.605469 L 174.773438 183.351562 L 148.996094 205.121094 L 108.324219 171.09375 L 65.289062 135.085938 L 65.171875 84.371094 L 48.726562 84.410156 L 48.863281 142.785156 Z M 185.535156 170.914062 L 142.5 134.910156 L 142.421875 100.699219 L 232.296875 100.488281 L 232.375 134.699219 L 191.800781 168.96875 L 187.527344 172.578125 Z M 185.535156 170.914062 " fill-opacity="1" fill-rule="nonzero"/></g></g></g><g fill="#000000" fill-opacity="1"><g transform="translate(47.741202, 279.594754)"><g><path d="M 11.40625 0 L 1.5 -29.453125 L 5.6875 -29.453125 L 13.875 -4.265625 L 12.90625 -4.265625 L 21.640625 -29.453125 L 24.8125 -29.453125 L 33.421875 -4.21875 L 32.59375 -4.21875 L 40.859375 -29.453125 L 44.828125 -29.453125 L 34.921875 0 L 31.296875 0 L 22.890625 -24.28125 L 23.4375 -24.28125 L 14.953125 0 Z M 11.40625 0 "/></g></g></g><g fill="#000000" fill-opacity="1"><g transform="translate(92.526077, 279.594754)"><g><path d="M 13.125 0.375 C 10.832031 0.375 8.863281 -0.046875 7.21875 -0.890625 C 5.582031 -1.742188 4.320312 -2.960938 3.4375 -4.546875 C 2.5625 -6.140625 2.125 -8.035156 2.125 -10.234375 C 2.125 -12.328125 2.539062 -14.171875 3.375 -15.765625 C 4.21875 -17.367188 5.40625 -18.625 6.9375 -19.53125 C 8.46875 -20.4375 10.234375 -20.890625 12.234375 -20.890625 C 14.191406 -20.890625 15.859375 -20.472656 17.234375 -19.640625 C 18.609375 -18.804688 19.664062 -17.617188 20.40625 -16.078125 C 21.144531 -14.546875 21.515625 -12.722656 21.515625 -10.609375 L 21.515625 -9.28125 L 5.1875 -9.28125 L 5.1875 -11.859375 L 18.84375 -11.859375 L 18.140625 -11.15625 C 18.140625 -13.351562 17.632812 -15.035156 16.625 -16.203125 C 15.625 -17.378906 14.191406 -17.96875 12.328125 -17.96875 C 11.015625 -17.96875 9.878906 -17.664062 8.921875 -17.0625 C 7.960938 -16.46875 7.222656 -15.625 6.703125 -14.53125 C 6.191406 -13.445312 5.9375 -12.15625 5.9375 -10.65625 L 5.9375 -10.3125 C 5.9375 -8.644531 6.210938 -7.257812 6.765625 -6.15625 C 7.328125 -5.0625 8.148438 -4.226562 9.234375 -3.65625 C 10.316406 -3.082031 11.625 -2.796875 13.15625 -2.796875 C 14.332031 -2.796875 15.488281 -2.960938 16.625 -3.296875 C 17.769531 -3.628906 18.84375 -4.21875 19.84375 -5.0625 L 21.140625 -2.25 C 20.140625 -1.394531 18.914062 -0.742188 17.46875 -0.296875 C 16.019531 0.148438 14.570312 0.375 13.125 0.375 Z M 13.125 0.375 "/></g></g></g><g fill="#000000" fill-opacity="1"><g transform="translate(114.500663, 279.594754)"><g><path d="M 10.0625 0.375 C 8.613281 0.375 7.3125 0.0976562 6.15625 -0.453125 C 5 -1.015625 4.09375 -1.769531 3.4375 -2.71875 C 2.789062 -3.664062 2.46875 -4.722656 2.46875 -5.890625 C 2.46875 -7.421875 2.882812 -8.640625 3.71875 -9.546875 C 4.550781 -10.453125 5.875 -11.09375 7.6875 -11.46875 C 9.5 -11.84375 11.878906 -12.03125 14.828125 -12.03125 L 17.296875 -12.03125 L 17.296875 -9.484375 L 14.953125 -9.484375 C 13.398438 -9.484375 12.070312 -9.425781 10.96875 -9.3125 C 9.863281 -9.207031 8.984375 -9.023438 8.328125 -8.765625 C 7.679688 -8.515625 7.203125 -8.175781 6.890625 -7.75 C 6.585938 -7.320312 6.4375 -6.785156 6.4375 -6.140625 C 6.4375 -5.054688 6.832031 -4.191406 7.625 -3.546875 C 8.414062 -2.910156 9.484375 -2.59375 10.828125 -2.59375 C 11.941406 -2.59375 12.9375 -2.847656 13.8125 -3.359375 C 14.6875 -3.878906 15.378906 -4.582031 15.890625 -5.46875 C 16.410156 -6.363281 16.671875 -7.351562 16.671875 -8.4375 L 16.671875 -13.203125 C 16.671875 -14.816406 16.28125 -15.976562 15.5 -16.6875 C 14.71875 -17.394531 13.492188 -17.75 11.828125 -17.75 C 10.628906 -17.75 9.4375 -17.578125 8.25 -17.234375 C 7.0625 -16.890625 5.84375 -16.335938 4.59375 -15.578125 L 3.34375 -18.421875 C 4.125 -18.953125 5 -19.398438 5.96875 -19.765625 C 6.945312 -20.128906 7.957031 -20.40625 9 -20.59375 C 10.050781 -20.789062 11.078125 -20.890625 12.078125 -20.890625 C 13.910156 -20.890625 15.453125 -20.601562 16.703125 -20.03125 C 17.960938 -19.457031 18.910156 -18.578125 19.546875 -17.390625 C 20.191406 -16.210938 20.515625 -14.675781 20.515625 -12.78125 L 20.515625 0 L 16.921875 0 L 16.921875 -4.546875 L 17.09375 -4.546875 C 16.8125 -3.609375 16.34375 -2.757812 15.6875 -2 C 15.03125 -1.25 14.226562 -0.664062 13.28125 -0.25 C 12.332031 0.164062 11.257812 0.375 10.0625 0.375 Z M 10.0625 0.375 "/></g></g></g><g fill="#000000" fill-opacity="1"><g transform="translate(136.72592, 279.594754)"><g><path d="M 12.03125 0.375 C 9.5 0.375 7.601562 -0.285156 6.34375 -1.609375 C 5.09375 -2.929688 4.46875 -4.816406 4.46875 -7.265625 L 4.46875 -17.34375 L 0.421875 -17.34375 L 0.421875 -20.515625 L 4.546875 -20.515625 L 4.546875 -26.65625 L 8.4375 -26.65625 L 8.4375 -20.515625 L 15.296875 -20.515625 L 15.296875 -17.34375 L 8.4375 -17.34375 L 8.4375 -7.5625 C 8.4375 -6.0625 8.769531 -4.925781 9.4375 -4.15625 C 10.101562 -3.394531 11.164062 -3.015625 12.625 -3.015625 C 13.125 -3.015625 13.613281 -3.066406 14.09375 -3.171875 C 14.582031 -3.285156 15.050781 -3.410156 15.5 -3.546875 L 16.125 -0.5 C 15.65625 -0.21875 15.035156 -0.00390625 14.265625 0.140625 C 13.503906 0.296875 12.757812 0.375 12.03125 0.375 Z M 12.03125 0.375 "/></g></g></g><g fill="#000000" fill-opacity="1"><g transform="translate(151.514842, 279.594754)"><g><path d="M 3.34375 0 L 3.34375 -29.453125 L 7.234375 -29.453125 L 7.234375 -16.171875 L 6.9375 -16.171875 C 7.550781 -17.671875 8.519531 -18.832031 9.84375 -19.65625 C 11.164062 -20.476562 12.660156 -20.890625 14.328125 -20.890625 C 16.003906 -20.890625 17.398438 -20.585938 18.515625 -19.984375 C 19.628906 -19.390625 20.457031 -18.476562 21 -17.25 C 21.539062 -16.03125 21.8125 -14.488281 21.8125 -12.625 L 21.8125 0 L 17.84375 0 L 17.84375 -12.40625 C 17.84375 -13.550781 17.6875 -14.503906 17.375 -15.265625 C 17.070312 -16.035156 16.585938 -16.617188 15.921875 -17.015625 C 15.253906 -17.421875 14.390625 -17.625 13.328125 -17.625 C 12.160156 -17.625 11.113281 -17.359375 10.1875 -16.828125 C 9.269531 -16.304688 8.5625 -15.582031 8.0625 -14.65625 C 7.5625 -13.738281 7.3125 -12.695312 7.3125 -11.53125 L 7.3125 0 Z M 3.34375 0 "/></g></g></g><g fill="#000000" fill-opacity="1"><g transform="translate(175.035182, 279.594754)"><g><path d="M 13.125 0.375 C 10.832031 0.375 8.863281 -0.046875 7.21875 -0.890625 C 5.582031 -1.742188 4.320312 -2.960938 3.4375 -4.546875 C 2.5625 -6.140625 2.125 -8.035156 2.125 -10.234375 C 2.125 -12.328125 2.539062 -14.171875 3.375 -15.765625 C 4.21875 -17.367188 5.40625 -18.625 6.9375 -19.53125 C 8.46875 -20.4375 10.234375 -20.890625 12.234375 -20.890625 C 14.191406 -20.890625 15.859375 -20.472656 17.234375 -19.640625 C 18.609375 -18.804688 19.664062 -17.617188 20.40625 -16.078125 C 21.144531 -14.546875 21.515625 -12.722656 21.515625 -10.609375 L 21.515625 -9.28125 L 5.1875 -9.28125 L 5.1875 -11.859375 L 18.84375 -11.859375 L 18.140625 -11.15625 C 18.140625 -13.351562 17.632812 -15.035156 16.625 -16.203125 C 15.625 -17.378906 14.191406 -17.96875 12.328125 -17.96875 C 11.015625 -17.96875 9.878906 -17.664062 8.921875 -17.0625 C 7.960938 -16.46875 7.222656 -15.625 6.703125 -14.53125 C 6.191406 -13.445312 5.9375 -12.15625 5.9375 -10.65625 L 5.9375 -10.3125 C 5.9375 -8.644531 6.210938 -7.257812 6.765625 -6.15625 C 7.328125 -5.0625 8.148438 -4.226562 9.234375 -3.65625 C 10.316406 -3.082031 11.625 -2.796875 13.15625 -2.796875 C 14.332031 -2.796875 15.488281 -2.960938 16.625 -3.296875 C 17.769531 -3.628906 18.84375 -4.21875 19.84375 -5.0625 L 21.140625 -2.25 C 20.140625 -1.394531 18.914062 -0.742188 17.46875 -0.296875 C 16.019531 0.148438 14.570312 0.375 13.125 0.375 Z M 13.125 0.375 "/></g></g></g><g fill="#000000" fill-opacity="1"><g transform="translate(197.009764, 279.594754)"><g><path d="M 3.34375 0 L 3.34375 -20.515625 L 7.0625 -20.515625 L 7.0625 -15.671875 L 6.859375 -15.671875 C 7.359375 -17.253906 8.207031 -18.484375 9.40625 -19.359375 C 10.601562 -20.242188 12.132812 -20.753906 14 -20.890625 L 15.625 -21.015625 L 15.921875 -17.46875 L 13.15625 -17.21875 C 11.289062 -17.050781 9.859375 -16.441406 8.859375 -15.390625 C 7.859375 -14.347656 7.359375 -12.992188 7.359375 -11.328125 L 7.359375 0 Z M 3.34375 0 "/></g></g></g><g fill="#000000" fill-opacity="1"><g transform="translate(211.965799, 279.594754)"><g><path d="M 11.40625 0 L 1.5 -29.453125 L 5.6875 -29.453125 L 13.875 -4.265625 L 12.90625 -4.265625 L 21.640625 -29.453125 L 24.8125 -29.453125 L 33.421875 -4.21875 L 32.59375 -4.21875 L 40.859375 -29.453125 L 44.828125 -29.453125 L 34.921875 0 L 31.296875 0 L 22.890625 -24.28125 L 23.4375 -24.28125 L 14.953125 0 Z M 11.40625 0 "/></g></g></g><g fill="#000000" fill-opacity="1"><g transform="translate(256.750683, 279.594754)"><g><path d="M 13.125 0.375 C 10.832031 0.375 8.863281 -0.046875 7.21875 -0.890625 C 5.582031 -1.742188 4.320312 -2.960938 3.4375 -4.546875 C 2.5625 -6.140625 2.125 -8.035156 2.125 -10.234375 C 2.125 -12.328125 2.539062 -14.171875 3.375 -15.765625 C 4.21875 -17.367188 5.40625 -18.625 6.9375 -19.53125 C 8.46875 -20.4375 10.234375 -20.890625 12.234375 -20.890625 C 14.191406 -20.890625 15.859375 -20.472656 17.234375 -19.640625 C 18.609375 -18.804688 19.664062 -17.617188 20.40625 -16.078125 C 21.144531 -14.546875 21.515625 -12.722656 21.515625 -10.609375 L 21.515625 -9.28125 L 5.1875 -9.28125 L 5.1875 -11.859375 L 18.84375 -11.859375 L 18.140625 -11.15625 C 18.140625 -13.351562 17.632812 -15.035156 16.625 -16.203125 C 15.625 -17.378906 14.191406 -17.96875 12.328125 -17.96875 C 11.015625 -17.96875 9.878906 -17.664062 8.921875 -17.0625 C 7.960938 -16.46875 7.222656 -15.625 6.703125 -14.53125 C 6.191406 -13.445312 5.9375 -12.15625 5.9375 -10.65625 L 5.9375 -10.3125 C 5.9375 -8.644531 6.210938 -7.257812 6.765625 -6.15625 C 7.328125 -5.0625 8.148438 -4.226562 9.234375 -3.65625 C 10.316406 -3.082031 11.625 -2.796875 13.15625 -2.796875 C 14.332031 -2.796875 15.488281 -2.960938 16.625 -3.296875 C 17.769531 -3.628906 18.84375 -4.21875 19.84375 -5.0625 L 21.140625 -2.25 C 20.140625 -1.394531 18.914062 -0.742188 17.46875 -0.296875 C 16.019531 0.148438 14.570312 0.375 13.125 0.375 Z M 13.125 0.375 "/></g></g></g><g fill="#000000" fill-opacity="1"><g transform="translate(278.725278, 279.594754)"><g><path d="M 10.0625 0.375 C 8.613281 0.375 7.3125 0.0976562 6.15625 -0.453125 C 5 -1.015625 4.09375 -1.769531 3.4375 -2.71875 C 2.789062 -3.664062 2.46875 -4.722656 2.46875 -5.890625 C 2.46875 -7.421875 2.882812 -8.640625 3.71875 -9.546875 C 4.550781 -10.453125 5.875 -11.09375 7.6875 -11.46875 C 9.5 -11.84375 11.878906 -12.03125 14.828125 -12.03125 L 17.296875 -12.03125 L 17.296875 -9.484375 L 14.953125 -9.484375 C 13.398438 -9.484375 12.070312 -9.425781 10.96875 -9.3125 C 9.863281 -9.207031 8.984375 -9.023438 8.328125 -8.765625 C 7.679688 -8.515625 7.203125 -8.175781 6.890625 -7.75 C 6.585938 -7.320312 6.4375 -6.785156 6.4375 -6.140625 C 6.4375 -5.054688 6.832031 -4.191406 7.625 -3.546875 C 8.414062 -2.910156 9.484375 -2.59375 10.828125 -2.59375 C 11.941406 -2.59375 12.9375 -2.847656 13.8125 -3.359375 C 14.6875 -3.878906 15.378906 -4.582031 15.890625 -5.46875 C 16.410156 -6.363281 16.671875 -7.351562 16.671875 -8.4375 L 16.671875 -13.203125 C 16.671875 -14.816406 16.28125 -15.976562 15.5 -16.6875 C 14.71875 -17.394531 13.492188 -17.75 11.828125 -17.75 C 10.628906 -17.75 9.4375 -17.578125 8.25 -17.234375 C 7.0625 -16.890625 5.84375 -16.335938 4.59375 -15.578125 L 3.34375 -18.421875 C 4.125 -18.953125 5 -19.398438 5.96875 -19.765625 C 6.945312 -20.128906 7.957031 -20.40625 9 -20.59375 C 10.050781 -20.789062 11.078125 -20.890625 12.078125 -20.890625 C 13.910156 -20.890625 15.453125 -20.601562 16.703125 -20.03125 C 17.960938 -19.457031 18.910156 -18.578125 19.546875 -17.390625 C 20.191406 -16.210938 20.515625 -14.675781 20.515625 -12.78125 L 20.515625 0 L 16.921875 0 L 16.921875 -4.546875 L 17.09375 -4.546875 C 16.8125 -3.609375 16.34375 -2.757812 15.6875 -2 C 15.03125 -1.25 14.226562 -0.664062 13.28125 -0.25 C 12.332031 0.164062 11.257812 0.375 10.0625 0.375 Z M 10.0625 0.375 "/></g></g></g><g fill="#000000" fill-opacity="1"><g transform="translate(300.950541, 279.594754)"><g><path d="M 3.34375 0 L 3.34375 -20.515625 L 7.0625 -20.515625 L 7.0625 -15.671875 L 6.859375 -15.671875 C 7.359375 -17.253906 8.207031 -18.484375 9.40625 -19.359375 C 10.601562 -20.242188 12.132812 -20.753906 14 -20.890625 L 15.625 -21.015625 L 15.921875 -17.46875 L 13.15625 -17.21875 C 11.289062 -17.050781 9.859375 -16.441406 8.859375 -15.390625 C 7.859375 -14.347656 7.359375 -12.992188 7.359375 -11.328125 L 7.359375 0 Z M 3.34375 0 "/></g></g></g><g fill="#000000" fill-opacity="1"><g transform="translate(315.908167, 279.594754)"><g/></g></g></svg>